inDegrees=no
num_controls=7
num_derivatives=13
num_iterations=104
num_multipliers=7
num_parameters=0
num_slacks=7
num_states=26
objective=5.314829
objective_accelerations=0.608465
objective_balance=0.033825
objective_effort=0.334151
objective_height=4.273577
objective_ligament=0.064810
solver_duration=1165.187277
status=Solve_Succeeded
success=true
DataType=double
version=3
OpenSimVersion=4.4-2022-07-23-0e9fedc
endheader
time	/jointset/ground_pelvis/pelvis_tilt/value	/jointset/ground_pelvis/pelvis_tx/value	/jointset/ground_pelvis/pelvis_ty/value	/jointset/hip_l/hip_flexion_l/value	/jointset/hip_l/hip_adduction_l/value	/jointset/hip_l/hip_rotation_l/value	/jointset/back/lumbar_extension/value	/jointset/patellofemoral_l/patellar_flexion_l/value	/jointset/knee_l/knee_flexion_l/value	/jointset/knee_l/knee_adduction_l/value	/jointset/knee_l/knee_rotation_l/value	/jointset/ankle_l/ankle_angle_l/value	/jointset/subtalar_l/subtalar_angle_l/value	/jointset/ground_pelvis/pelvis_tilt/speed	/jointset/ground_pelvis/pelvis_tx/speed	/jointset/ground_pelvis/pelvis_ty/speed	/jointset/hip_l/hip_flexion_l/speed	/jointset/hip_l/hip_adduction_l/speed	/jointset/hip_l/hip_rotation_l/speed	/jointset/back/lumbar_extension/speed	/jointset/patellofemoral_l/patellar_flexion_l/speed	/jointset/knee_l/knee_flexion_l/speed	/jointset/knee_l/knee_adduction_l/speed	/jointset/knee_l/knee_rotation_l/speed	/jointset/ankle_l/ankle_angle_l/speed	/jointset/subtalar_l/subtalar_angle_l/speed	/forceset/tau_hip_flexion_l	/forceset/tau_hip_adduction_l	/forceset/tau_hip_rotation_l	/forceset/tau_knee_flexion_l	/forceset/tau_ankle_angle_l	/forceset/tau_subtalar_angle_l	/forceset/tau_lumbar_extension	lambda_cid13_p0	lambda_cid13_p1	lambda_cid13_p2	lambda_cid13_p3	lambda_cid13_p4	lambda_cid13_p5	lambda_cid14_p0	/jointset/ground_pelvis/pelvis_tilt/accel	/jointset/ground_pelvis/pelvis_tx/accel	/jointset/ground_pelvis/pelvis_ty/accel	/jointset/hip_l/hip_flexion_l/accel	/jointset/hip_l/hip_adduction_l/accel	/jointset/hip_l/hip_rotation_l/accel	/jointset/back/lumbar_extension/accel	/jointset/patellofemoral_l/patellar_flexion_l/accel	/jointset/knee_l/knee_flexion_l/accel	/jointset/knee_l/knee_adduction_l/accel	/jointset/knee_l/knee_rotation_l/accel	/jointset/ankle_l/ankle_angle_l/accel	/jointset/subtalar_l/subtalar_angle_l/accel	gamma_cid13_p0	gamma_cid13_p1	gamma_cid13_p2	gamma_cid13_p3	gamma_cid13_p4	gamma_cid13_p5	gamma_cid14_p0
1	-0.7472111684221922	-0.1903116045462799	0.5952767525606039	1.94605672512972	-0.4716650245086993	-0.1031913899696458	-0.2617911843795907	1.044450190896364	1.044450190896369	-0.1623309633189262	-0.1745252866752096	-0.086931231157535	-0.1658615875579192	-0.02220873292770331	0.008223576989175143	0.004293215505352637	0.002795420136162476	-0.00134377124000609	0.001161978074294067	-0.000117484191555185	-0.005346503799358733	-0.005346503799359511	-0.006109661908902882	-2.077022332505244e-06	0.01333174372670108	0.004511404486826892	-0.4255732295086392	0.01238255163495763	-0.003286077228507521	-0.1943736930451187	0.1758598229987024	0.07778058707762425	0.3414945554457057	14.55800781758633	-37.11374740090169	6.477273097076029	-7.412653904075662	-641.162191873922	-41.03735815667415	-14.73187721896551	2.414699307491607	0.6839048899149762	1.764021040946865	-7.082174942736033	0.1747522603344268	-1.890823873072409	-0.02801647626312222	-3.946897835609469	-3.946897835609394	-0.170864455262578	-0.02035930402947535	0.2805803054439762	0.3201007565285192	2.577309817373133e-10	2.848436573822172e-09	-4.531006590197822e-09	2.951097363854719e-09	-3.57105192541148e-09	4.75428729205668e-09	6.586773813845245e-10
1.01	-0.7473138446842792	-0.1901952351563252	0.5954077408542251	1.9457322136838	-0.4716689048702334	-0.1032743203072533	-0.2617922931573008	1.04419938078401	1.044199380784052	-0.162399145864468	-0.1745255225780602	-0.0867837462686443	-0.1657995899260038	0.001676027592884226	0.0150578623465093	0.02190139620480812	-0.06769407471733711	0.0005719465360705506	-0.01775119549613912	-0.0001007927902489691	-0.04480287537386238	-0.04480287537386263	-0.007513051450767575	-4.798030943878019e-05	0.01617495311655027	0.007896831360558172	-0.4254284193529973	0.01238758176986483	-0.003279062200647101	-0.1944140308711716	0.1760046847896247	0.07775601348516746	0.3414179005892262	14.61362008870427	-37.12227820305979	6.489445274748869	-7.594818729976444	-641.0740596169097	-41.05490291092063	-14.74341513873004	2.375745936011619	0.6843242297264394	1.758757899521798	-7.031792271087903	0.2006205172341386	-1.892039236660789	0.01703373413422186	-3.943109523554627	-3.94310952355454	-0.1230089467938665	0.002864387596837568	0.2876490397074628	0.3490704567199438	-1.874669069363858e-09	-4.678426985578383e-09	3.315842610291398e-09	-1.605146808044248e-09	-8.11780135828588e-09	2.19362933155229e-08	-3.957135202570111e-09
1.02	-0.7471775970388232	-0.19001029613858	0.5957147192178549	1.944702916186467	-0.471653500257814	-0.1035464774081493	-0.2617931306638481	1.04355438641488	1.043554386414939	-0.1624809488539551	-0.1745263034679105	-0.08660753772905935	-0.1657034766645663	0.02557604858022259	0.02193750254729173	0.03949122950714547	-0.138161790148066	0.002513223551762561	-0.03668337457186488	-6.322995670199837e-05	-0.08418335515572919	-0.08418335515572954	-0.00883375071847573	-0.0001110744506144012	0.01907647386447294	0.01133453039125829	-0.4252836091973706	0.0123926119046802	-0.003272047172017574	-0.194454368697309	0.1761495465804973	0.07773143989258854	0.3413412457327804	14.66687929587742	-37.13175494180142	6.503319545311977	-7.80297537601241	-641.0426005382246	-41.07730965930311	-14.77231688121227	2.417751400841851	0.6929758586044891	1.760351561523211	-7.077819058181782	0.1798641082577798	-1.894624974130454	-0.02384218981440357	-3.931719477082275	-3.931719477082325	-0.154326400431218	-0.0237974748427324	0.2922425770584736	0.3305551879224728	-4.3514743575488e-09	-1.172267143222428e-08	1.40116051646528e-08	-5.734677775404678e-09	-1.281603252346008e-08	4.014166593196295e-08	-8.823988900757024e-09
1.03	-0.7468022075036457	-0.1897563162356051	0.5961974362279719	1.942969150360945	-0.4716184960195852	-0.1040078269095036	-0.261793573472785	1.042516039833269	1.04251603983331	-0.1625756221764625	-0.1745276723182912	-0.08640206999022743	-0.1655726885789582	0.04951065973942737	0.02886778302360197	0.05704234975524753	-0.2085771626866637	0.004499041389825102	-0.0555670461985383	-3.005518799875956e-05	-0.1234659322163449	-0.1234659322163442	-0.01009258003795595	-0.0001513306332570574	0.02202259015957676	0.01483694189873332	-0.4247360173858336	0.01246475041234132	-0.003265240131118594	-0.1944804153887612	0.1762070202350039	0.07769041083092124	0.340990822787132	14.70999216368307	-37.13486860672703	6.519103417462238	-7.998596126336491	-640.7130285111937	-41.15688912224008	-14.81859244645721	2.382634213943266	0.6944478910074382	1.751015310608068	-7.021266788126439	0.2096553675617662	-1.882325204140391	0.01618880854471942	-3.923519710684635	-3.923519710684451	-0.1104165138654156	0.007573071566581025	0.2966238890962791	0.3621625318892411	-6.83179398488766e-09	-1.876199119404614e-08	2.473643826344149e-08	-9.859854526392263e-09	-1.751580942059652e-08	5.835748106465785e-08	-1.369340424296672e-08
